<svg xmlns="http://www.w3.org/2000/svg" width="800" height="800" viewBox="0 0 800 800">
<g>
<path d="M 408.48 647.75 C406.46,651.74 404.63,655.00 404.41,655.00 C404.20,655.00 402.25,651.48 400.09,647.18 C396.33,639.71 387.30,625.74 378.71,614.10 C367.23,598.57 344.79,574.65 288.53,518.00 C221.71,450.70 202.40,429.41 182.41,401.00 C154.97,362.01 139.05,326.03 133.47,290.43 C131.35,276.94 131.84,252.16 134.44,241.50 C139.85,219.26 148.90,203.05 163.92,188.69 C173.15,179.88 180.39,174.83 192.50,168.76 C220.65,154.64 256.61,150.03 295.00,155.60 C338.97,161.98 377.31,182.21 400.80,211.41 L 406.71 218.76 L 408.38 215.94 C411.00,211.50 424.47,197.61 432.86,190.69 C453.22,173.90 480.30,161.08 508.69,154.78 C517.04,152.93 521.70,152.60 540.00,152.56 C558.53,152.52 563.06,152.83 572.76,154.79 C622.60,164.86 657.41,195.69 668.55,239.61 C677.85,276.26 671.24,316.83 648.61,361.95 C633.47,392.11 611.96,422.29 582.62,454.50 C577.11,460.55 548.26,490.02 518.50,520.00 C488.75,549.97 460.11,579.22 454.86,585.00 C434.82,607.05 416.59,631.71 408.48,647.75 ZM 411.47 611.50 L 410.87 615.50 L 414.19 610.12 C423.11,595.64 431.62,583.54 439.57,574.00 C452.19,558.87 489.12,522.35 521.50,492.98 C536.90,479.02 552.88,464.40 557.00,460.49 C561.12,456.58 567.59,450.49 571.36,446.94 C581.27,437.62 603.35,413.33 614.02,400.00 C645.41,360.78 662.23,322.50 666.03,281.62 C667.25,268.47 666.38,257.71 663.02,244.57 C652.08,201.79 617.07,169.66 570.71,159.86 C557.23,157.02 535.71,156.83 522.00,159.45 C491.22,165.33 462.13,182.98 445.82,205.65 C436.02,219.28 428.41,236.68 425.11,253.00 C420.58,275.39 420.71,271.45 419.97,412.00 C419.19,560.84 419.28,558.84 411.47,611.50 ZM 432.60 559.25 C429.97,562.96 427.58,566.00 427.28,566.00 C426.99,566.00 427.07,562.74 427.46,558.75 C429.60,537.37 430.06,520.19 430.95,429.50 C431.98,325.39 433.13,294.63 437.09,266.50 C438.21,258.49 438.50,255.90 439.77,255.26 C440.38,254.95 441.20,255.09 442.45,255.29 C442.61,255.32 442.77,255.35 442.94,255.38 C453.50,257.06 517.32,287.66 543.00,303.35 C569.95,319.81 582.37,331.61 588.55,346.66 C596.37,365.68 585.48,390.29 552.15,428.97 C540.98,441.94 529.89,453.59 486.97,497.50 C458.56,526.57 444.10,542.99 432.60,559.25 ZM 295.97 362.31 C297.33,363.24 298.53,364.00 298.64,364.00 C298.75,364.00 300.98,360.06 303.60,355.25 C312.74,338.44 323.03,323.76 345.48,295.50 C366.62,268.88 374.77,257.39 380.36,246.30 L 382.98 241.10 L 377.24 236.73 C359.88,223.52 332.93,211.49 306.76,205.27 C296.64,202.86 293.57,202.59 276.50,202.56 C259.48,202.54 256.67,202.78 249.50,204.88 C209.93,216.45 196.99,244.99 215.04,280.83 C221.27,293.19 228.56,302.71 242.42,316.61 C255.93,330.16 284.12,354.21 295.97,362.31 Z" fill="rgb(1,1,0)"/>
<path d="M 0.00 400.00 L 0.00 0.00 L 400.00 0.00 L 800.00 0.00 L 800.00 400.00 L 800.00 800.00 L 400.00 800.00 L 0.00 800.00 L 0.00 400.00 ZM 408.48 647.75 C416.59,631.71 434.82,607.05 454.86,585.00 C460.11,579.22 488.75,549.97 518.50,520.00 C548.26,490.02 577.11,460.55 582.62,454.50 C611.96,422.29 633.47,392.11 648.61,361.95 C671.24,316.83 677.85,276.26 668.55,239.61 C657.41,195.69 622.60,164.86 572.76,154.79 C563.06,152.83 558.53,152.52 540.00,152.56 C521.70,152.60 517.04,152.93 508.69,154.78 C480.30,161.08 453.22,173.90 432.86,190.69 C424.47,197.61 411.00,211.50 408.38,215.94 L 406.71 218.76 L 400.80 211.41 C377.31,182.21 338.97,161.98 295.00,155.60 C256.61,150.03 220.65,154.64 192.50,168.76 C180.39,174.83 173.15,179.88 163.92,188.69 C148.90,203.05 139.85,219.26 134.44,241.50 C131.84,252.16 131.35,276.94 133.47,290.43 C139.05,326.03 154.97,362.01 182.41,401.00 C202.40,429.41 221.71,450.70 288.53,518.00 C344.79,574.65 367.23,598.57 378.71,614.10 C387.30,625.74 396.33,639.71 400.09,647.18 C402.25,651.48 404.20,655.00 404.41,655.00 C404.63,655.00 406.46,651.74 408.48,647.75 ZM 411.47 611.50 C419.28,558.84 419.19,560.84 419.97,412.00 C420.71,271.45 420.58,275.39 425.11,253.00 C428.41,236.68 436.02,219.28 445.82,205.65 C462.13,182.98 491.22,165.33 522.00,159.45 C535.71,156.83 557.23,157.02 570.71,159.86 C617.07,169.66 652.08,201.79 663.02,244.57 C666.38,257.71 667.25,268.47 666.03,281.62 C662.23,322.50 645.41,360.78 614.02,400.00 C603.35,413.33 581.27,437.62 571.36,446.94 C567.59,450.49 561.12,456.58 557.00,460.49 C552.88,464.40 536.90,479.02 521.50,492.98 C489.12,522.35 452.19,558.87 439.57,574.00 C431.62,583.54 423.11,595.64 414.19,610.12 L 410.87 615.50 L 411.47 611.50 ZM 432.60 559.25 C444.10,542.99 458.56,526.57 486.97,497.50 C529.89,453.59 540.98,441.94 552.15,428.97 C585.48,390.29 596.37,365.68 588.55,346.66 C582.37,331.61 569.95,319.81 543.00,303.35 C517.32,287.66 453.50,257.06 442.94,255.38 C438.57,254.68 438.82,254.20 437.09,266.50 C433.13,294.63 431.98,325.39 430.95,429.50 C430.06,520.19 429.60,537.37 427.46,558.75 C427.07,562.74 426.99,566.00 427.28,566.00 C427.58,566.00 429.97,562.96 432.60,559.25 ZM 295.97 362.31 C284.12,354.21 255.93,330.16 242.42,316.61 C228.56,302.71 221.27,293.19 215.04,280.83 C196.99,244.99 209.93,216.45 249.50,204.88 C256.67,202.78 259.48,202.54 276.50,202.56 C293.57,202.59 296.64,202.86 306.76,205.27 C332.93,211.49 359.88,223.52 377.24,236.73 L 382.98 241.10 L 380.36 246.30 C374.77,257.39 366.62,268.88 345.48,295.50 C323.03,323.76 312.74,338.44 303.60,355.25 C300.98,360.06 298.75,364.00 298.64,364.00 C298.53,364.00 297.33,363.24 295.97,362.31 Z" fill="rgb(250,250,250)"/>
</g>
</svg>